<?xml version="1.0" standalone="no"?>
<!DOCTYPE svg PUBLIC "-//W3C//DTD SVG 20010904//EN"
 "http://www.w3.org/TR/2001/REC-SVG-20010904/DTD/svg10.dtd">
<svg version="1.0" xmlns="http://www.w3.org/2000/svg"
 width="640.000000pt" height="1280.000000pt" viewBox="0 0 640.000000 1280.000000"
 preserveAspectRatio="xMidYMid meet">
<metadata>
Created by potrace 1.15, written by Peter Selinger 2001-2017
</metadata>
<g transform="translate(0.000000,1280.000000) scale(0.100000,-0.100000)"
fill="#000000" stroke="none">
<path d="M3019 12768 c-57 -41 -134 -121 -167 -172 -54 -85 -93 -127 -107
-116 -18 15 -148 50 -185 50 -41 0 -40 -28 3 -70 19 -20 27 -34 20 -37 -29
-11 -163 -125 -191 -164 -35 -47 -40 -67 -17 -75 8 -4 15 -10 15 -14 0 -5 -27
-45 -61 -90 -33 -46 -70 -103 -80 -128 -11 -25 -27 -51 -36 -57 -23 -17 -10
-68 16 -60 21 6 31 -17 31 -75 0 -68 12 -112 31 -117 11 -3 16 -9 13 -14 -11
-18 -34 -163 -28 -181 9 -29 41 -21 70 17 15 20 29 34 31 31 9 -8 30 -131 26
-143 -3 -7 -1 -13 4 -13 5 0 7 -28 5 -63 -5 -72 9 -133 38 -170 31 -40 135
-104 180 -112 36 -6 41 -11 52 -48 9 -29 36 -66 84 -117 l71 -75 6 -71 c5 -70
5 -71 -24 -88 -16 -9 -48 -40 -71 -67 -41 -48 -120 -99 -153 -99 -33 0 -302
-112 -394 -164 -54 -31 -116 -57 -141 -61 -61 -10 -235 -71 -286 -101 -40 -23
-42 -27 -53 -97 -6 -39 -29 -117 -51 -172 -50 -129 -120 -461 -120 -570 0 -68
-5 -88 -42 -176 -35 -81 -47 -99 -64 -99 -38 0 -47 -22 -34 -87 16 -79 0 -253
-29 -318 -27 -61 -27 -105 1 -158 11 -23 36 -79 54 -125 18 -46 44 -98 58
-117 31 -41 32 -55 6 -189 -11 -58 -30 -174 -41 -258 -11 -84 -24 -187 -30
-228 -6 -41 -9 -185 -8 -320 4 -335 3 -425 -6 -640 -6 -149 -4 -206 9 -293 9
-59 16 -133 16 -165 0 -38 7 -70 20 -94 l20 -37 -21 -11 c-27 -15 -77 -95 -90
-145 -6 -22 -33 -94 -61 -160 -45 -105 -52 -132 -59 -220 -4 -55 -19 -170 -33
-255 -32 -195 -34 -277 -5 -314 14 -17 30 -26 50 -26 25 0 33 7 58 58 l30 57
1 -125 c0 -110 3 -131 22 -170 22 -43 25 -45 68 -45 65 0 76 26 73 175 -1 63
1 153 4 200 6 83 7 84 13 35 4 -27 13 -140 20 -250 7 -110 18 -214 26 -232 25
-62 101 -86 136 -43 25 31 25 186 -2 315 -20 98 -27 191 -11 150 4 -11 14 -63
21 -115 14 -104 50 -200 74 -200 18 0 19 -21 22 -295 1 -161 40 -640 71 -880
28 -217 17 -697 -18 -819 -56 -189 -71 -492 -43 -872 7 -103 -10 -172 -82
-323 -30 -63 -54 -123 -54 -134 0 -34 40 -106 74 -131 17 -13 50 -34 74 -46
23 -12 42 -23 42 -24 0 0 -11 -23 -25 -50 -14 -27 -25 -55 -25 -63 0 -7 -18
-48 -39 -91 -27 -55 -53 -90 -85 -116 -25 -20 -63 -67 -85 -104 -22 -37 -51
-78 -65 -91 -14 -14 -40 -50 -57 -80 -18 -31 -56 -93 -86 -138 -60 -91 -73
-126 -74 -196 -1 -37 5 -55 26 -84 l28 -35 171 7 c173 7 282 18 346 35 61 16
158 82 236 160 85 84 141 112 279 137 101 18 167 49 176 83 4 14 7 58 8 97 1
51 10 101 31 166 17 52 30 102 30 111 0 10 23 43 50 74 94 105 128 213 95 302
-8 24 -26 55 -38 68 -17 19 -22 37 -24 86 -1 69 -18 110 -85 209 -22 32 -51
83 -65 113 l-25 54 31 93 c71 214 87 354 65 572 -8 83 -19 235 -23 339 l-9
189 104 316 c58 174 122 388 143 476 38 155 97 340 128 398 8 16 30 50 50 75
64 84 99 184 112 323 l6 70 77 -70 c80 -75 118 -135 118 -189 0 -18 -9 -72
-19 -120 -28 -129 -33 -202 -21 -294 14 -106 32 -163 86 -268 73 -140 103
-294 120 -610 5 -104 3 -130 -26 -275 -39 -195 -38 -291 4 -394 64 -157 78
-387 37 -606 -87 -472 -84 -449 -85 -655 -1 -107 2 -211 7 -231 l7 -36 46 9
c25 6 48 8 51 5 2 -3 -13 -41 -35 -85 -53 -103 -61 -138 -63 -250 -2 -107 2
-115 79 -149 60 -26 78 -51 132 -183 32 -78 40 -88 90 -122 76 -52 145 -76
256 -90 l95 -11 86 44 c131 66 183 119 183 186 0 16 -16 76 -36 133 -35 103
-64 241 -64 310 0 19 -12 62 -25 95 -15 36 -21 61 -15 63 27 9 75 60 91 97 10
23 29 96 43 164 l24 123 -38 72 c-53 97 -90 213 -90 278 0 64 21 142 60 219
16 30 45 102 64 158 80 229 97 425 52 607 -29 114 -71 371 -87 524 -12 119 -7
206 23 365 17 94 21 173 28 535 7 420 8 427 38 576 35 171 48 312 57 592 4
143 11 211 25 265 24 88 25 152 4 213 -15 46 -15 47 9 73 39 40 56 93 83 251
42 243 43 254 59 610 8 190 20 386 25 435 6 50 15 146 21 215 6 69 16 130 22
136 13 11 104 48 147 59 62 16 177 69 202 93 15 14 40 43 55 65 l27 39 -23 19
c-13 11 -33 19 -46 19 -61 0 -208 81 -200 110 3 8 -10 44 -28 80 -25 50 -42
69 -70 83 -45 23 -47 44 -6 83 17 16 40 47 52 69 27 51 27 133 -2 300 -21 129
-46 331 -56 460 -9 118 -35 270 -60 355 -12 42 -35 141 -50 220 -27 145 -76
371 -96 444 -7 27 -36 65 -102 132 -81 83 -105 102 -207 155 -63 33 -155 83
-205 110 -49 28 -115 60 -145 73 -30 13 -84 42 -119 64 l-64 42 -3 55 c-4 92
-58 155 -144 170 -22 4 -40 9 -40 11 0 14 38 96 60 129 47 69 81 144 101 223
12 48 26 81 36 87 10 6 41 33 69 61 57 56 94 144 94 221 0 24 9 59 20 81 18
32 20 48 14 110 -8 88 6 132 42 132 50 0 37 100 -32 260 l-33 75 20 21 c14 15
17 24 9 29 -6 4 -24 33 -40 66 l-28 59 26 -19 c15 -10 44 -26 65 -34 36 -16
37 -16 26 4 -17 33 -145 164 -217 222 -68 56 -146 101 -193 112 -23 6 -26 12
-26 43 1 32 -3 37 -33 48 -19 7 -28 13 -19 13 9 1 27 9 40 20 22 18 22 19 3
29 -11 6 -94 14 -184 19 -192 9 -194 9 -285 0 l-70 -7 25 20 c14 11 44 27 67
36 71 28 63 49 -22 58 -18 2 -31 10 -33 20 -5 25 -35 19 -83 -16z"/>
</g>
</svg>
